# xmcd
#
# Track frame offsets: 
#        150
#        12719
#        24304
#        37218
#        50359
#        64147
#        89215
#        103294
#        117681
#        132020
#        145711
#        153967
#        162325
#        175342
#        187725
#        197474
#        209159
#        220359
#        227544
#        242222
#        251997
#
# Disc length: 3577 seconds
#
# Revision: 0
# Processed by: cddbd v1.5.1PL0 Copyright (c) Steve Scherf et al.
# Submitted via: ExactAudioCopy v0.95a5
#
DISCID=3f0df715
DTITLE=Leadbelly - Blues Archiv [CD 2 of 2)
DYEAR=2004
DGENRE=blues
TTITLE0=Good Morning Blues
TTITLE1=Whoa Back Buck
TTITLE2=Leaving Blues
TTITLE3=Alberta
TTITLE4=Alabama Bound
TTITLE5=Bourgeois Blues
TTITLE6=The Red Cross Store Blues
TTITLE7=Easy Rider
TTITLE8=I'm On My Last Go Round
TTITLE9=New York City
TTITLE10=Irene
TTITLE11=On Monday
TTITLE12=Rock Island Line
TTITLE13=Eagle Rock Rag
TTITLE14=Corn Bread Rough
TTITLE15=Little Sally Walker
TTITLE16=I Got A Pretty Flower
TTITLE17=Take This Hammer
TTITLE18=In New Orleans
TTITLE19=How Long
TTITLE20=Irene Goodnight
EXTD=
EXTT0=
EXTT1=
EXTT2=
EXTT3=
EXTT4=
EXTT5=
EXTT6=
EXTT7=
EXTT8=
EXTT9=
EXTT10=
EXTT11=
EXTT12=
EXTT13=
EXTT14=
EXTT15=
EXTT16=
EXTT17=
EXTT18=
EXTT19=
EXTT20=
PLAYORDER=
